<?xml version="1.0" encoding="UTF-8"?>
<svg width="20px" height="20px" viewBox="0 0 20 20" version="1.1" xmlns="http://www.w3.org/2000/svg" xmlns:xlink="http://www.w3.org/1999/xlink">
    <title>D66A53FF-AF4B-41B8-A903-D3162E662D7D</title>
    <g id="Page-1" stroke="none" stroke-width="1" fill="none" fill-rule="evenodd">
        <g id="adding-new-API-Calls" transform="translate(-1008.000000, -554.000000)" fill-rule="nonzero">
            <g id="Icon/Connectro-logo" transform="translate(1008.000000, 554.000000)">
                <g id="AWSSQS" transform="translate(2.000000, 0.000000)">
                    <polyline id="XMLID_2_" fill="#D9A741" points="16 6.48767123 15.7407407 6.48219178 8.00529101 4.10958904 8 4 8 0 16 4.14246575 16 6.48767123"></polyline>
                    <polyline id="XMLID_3_" fill="#876929" points="8 4.24109589 8 0 0 4.14246575 0 15.8575342 0.00529100529 15.8575342 0.00529100529 15.8575342 8 20 8.02645503 19.9616438 8.01587302 16.0219178 8 16 7.5026455 15.6328767 1.31216931 13.7205479 1.34391534 6.31232877 8 4.24109589"></polyline>
                    <polyline id="XMLID_4_" fill="#D9A741" points="9.1957672 12.6410959 1.02116402 13.830137 1.02116402 6.16438356 9.1957672 7.35890411 9.1957672 12.6410959"></polyline>
                    <polyline id="XMLID_5_" fill="#876929" points="5.05291005 12.1534247 8 12.5424658 8 7.45205479 5.05291005 7.84109589 5.05291005 12.1534247"></polyline>
                    <polyline id="XMLID_6_" fill="#876929" points="2.08465608 11.7643836 4 12.0164384 4 7.97808219 2.08465608 8.23013699 2.08465608 11.7643836"></polyline>
                    <polyline id="XMLID_7_" fill="#624A1E" points="1.02116402 6.16438356 8 4 16 6.48767123 9.2010582 7.35890411 1.02116402 6.16438356"></polyline>
                    <polyline id="XMLID_8_" fill="#D9A741" points="15.994709 11.4794521 8 12.5260274 8 7.45205479 15.994709 8.50958904 15.994709 11.4794521"></polyline>
                    <polyline id="XMLID_9_" fill="#D9A741" points="15.994709 13.5178082 15.8201058 13.5232877 8.02645503 15.9671233 8 16 8 20 15.994709 15.8630137 15.994709 13.5178082"></polyline>
                    <polyline id="XMLID_10_" fill="#FAD791" points="1.02116402 13.830137 8 16 15.994709 13.5178082 9.1957672 12.6410959 1.02116402 13.830137"></polyline>
                </g>
            </g>
        </g>
    </g>
</svg>